<svg width="178" height="121" viewBox="0 0 178 121" fill="none" xmlns="http://www.w3.org/2000/svg">
<g filter="url(#filter0_dd_845_303)">
<ellipse cx="89.1304" cy="26.1555" rx="21.0005" ry="19.2004" fill="#EF9E02" fill-opacity="0.83"/>
<path d="M105.717 46.1888C96.5008 55.0637 80.9698 52.4467 74.3563 50.0289C72.3083 49.3809 66.3917 64.4081 63.6894 72.0028H120.651C118.603 60.7385 109.842 50.1 105.717 46.1888Z" fill="#EF9E02" fill-opacity="0.83"/>
<path d="M89.4625 48.5558C88.2319 51.6327 82.3353 49.0221 81.553 47.9554C80.6997 48.3821 66.2491 45.5472 65.3957 35.7336C61.7299 37.0356 60.0337 19.3059 65.396 21.2282C62.3697 0.981458 108.405 -12.5219 114.891 23.1483C118.091 19.7348 120.864 35.0526 114.891 35.7352C107.807 36.5448 110.132 21.9927 114.214 22.8665C114.435 22.9138 114.661 23.0061 114.891 23.1483C108.405 -12.5219 62.3697 0.981458 65.396 21.2282C69.623 22.7436 68.5956 37.0137 65.3957 35.7336C66.2491 45.5472 80.6997 48.3821 81.553 47.9554C82.4064 47.5288 89.8892 47.4891 89.4625 48.5558Z" fill="#EF9E02" fill-opacity="0.83"/>
<path d="M81.553 47.9554C82.3353 49.0221 88.2319 51.6327 89.4625 48.5558C89.8892 47.4891 82.4064 47.5288 81.553 47.9554ZM81.553 47.9554C80.6997 48.3821 66.2491 45.5472 65.3957 35.7336M65.3957 35.7336C61.7299 37.0356 60.0337 19.3059 65.396 21.2282M65.3957 35.7336C68.5956 37.0137 69.623 22.7436 65.396 21.2282M65.3957 35.7336C64.7612 35.4798 65.6341 26.2772 65.396 21.2282M65.396 21.2282C62.3697 0.981458 108.405 -12.5219 114.891 23.1483M114.891 23.1483C118.091 19.7348 120.864 35.0526 114.891 35.7352C107.424 36.5885 110.411 20.3749 114.891 23.1483ZM114.891 23.1483L112.331 22.0816M74.3563 50.0289C80.9698 52.4467 96.5008 55.0637 105.717 46.1888C109.842 50.1 118.603 60.7385 120.651 72.0028H63.6894C66.3917 64.4082 72.3083 49.3809 74.3563 50.0289Z" stroke="#EF9E02" stroke-opacity="0.83" stroke-width="0.426676"/>
<path d="M120.651 73.791H61.9358C60.6832 73.3213 59.4567 75.8135 59 77.1183C60.2396 86.1866 62.8752 104.793 63.5015 106.672C64.1278 108.551 66.1111 109.412 67.0245 109.608H115.954C117.207 109.138 118.042 107.977 118.303 107.455C119.869 98.0601 123 78.8406 123 77.1183C123 75.396 121.434 74.1825 120.651 73.791Z" fill="#EF9E02" fill-opacity="0.83" stroke="#EF9E02" stroke-opacity="0.83" stroke-width="0.391437"/>
<path d="M66.1538 111.59H116.828" stroke="#EF9E02" stroke-opacity="0.83" stroke-width="1.78851" stroke-linecap="round"/>
<ellipse cx="148.656" cy="39.1839" rx="15.0941" ry="13.8003" fill="#EF9E02" fill-opacity="0.83"/>
<path d="M160.578 53.5827C153.954 59.9615 142.791 58.0806 138.037 56.3428C136.565 55.8771 132.313 66.6779 130.371 72.1365H171.311C169.839 64.0403 163.542 56.3939 160.578 53.5827Z" fill="#EF9E02" fill-opacity="0.83"/>
<path d="M148.895 55.284C148.01 57.4955 143.772 55.6192 143.21 54.8525C142.597 55.1592 132.21 53.1215 131.597 46.068C128.962 47.0038 127.743 34.2606 131.597 35.6423C129.422 21.0899 162.51 11.3844 167.171 37.0223C169.471 34.5689 171.465 45.5786 167.171 46.0692C162.08 46.6511 163.751 36.1918 166.685 36.8198C166.844 36.8538 167.006 36.9201 167.171 37.0223C162.51 11.3844 129.422 21.0899 131.597 35.6423C134.635 36.7315 133.897 46.9881 131.597 46.068C132.21 53.1215 142.597 55.1592 143.21 54.8525C143.823 54.5458 149.202 54.5173 148.895 55.284Z" fill="#EF9E02" fill-opacity="0.83"/>
<path d="M143.21 54.8525C143.772 55.6192 148.01 57.4955 148.895 55.284C149.202 54.5173 143.823 54.5458 143.21 54.8525ZM143.21 54.8525C142.597 55.1592 132.21 53.1215 131.597 46.068M131.597 46.068C128.962 47.0038 127.743 34.2606 131.597 35.6423M131.597 46.068C133.897 46.9881 134.635 36.7315 131.597 35.6423M131.597 46.068C131.141 45.8856 131.768 39.2713 131.597 35.6423M131.597 35.6423C129.422 21.0899 162.51 11.3844 167.171 37.0223M167.171 37.0223C169.471 34.5689 171.465 45.5786 167.171 46.0692C161.805 46.6825 163.951 35.0289 167.171 37.0223ZM167.171 37.0223L165.331 36.2557M138.037 56.3428C142.791 58.0806 153.954 59.9615 160.578 53.5827C163.542 56.3939 169.839 64.0403 171.311 72.1365H130.371C132.313 66.6779 136.565 55.8771 138.037 56.3428Z" stroke="#EF9E02" stroke-opacity="0.83" stroke-width="0.306674"/>
<path d="M171.312 73.4219H129.11C128.21 73.0843 127.328 74.8755 127 75.8133C127.891 82.3312 129.785 95.7045 130.235 97.0549C130.686 98.4054 132.111 99.0244 132.768 99.165H167.936C168.836 98.8274 169.436 97.9927 169.624 97.6176C170.749 90.8653 173 77.0513 173 75.8133C173 74.5754 171.875 73.7033 171.312 73.4219Z" fill="#EF9E02" fill-opacity="0.83" stroke="#EF9E02" stroke-opacity="0.83" stroke-width="0.281346"/>
<path d="M132.142 100.59H168.564" stroke="#EF9E02" stroke-opacity="0.83" stroke-width="1.28549" stroke-linecap="round"/>
<ellipse cx="26.6561" cy="39.0806" rx="15.0941" ry="13.8003" fill="#EF9E02" fill-opacity="0.83"/>
<path d="M38.5779 53.4795C31.9537 59.8583 20.7908 57.9773 16.0374 56.2395C14.5653 55.7738 10.3128 66.5746 8.37053 72.0332H49.3115C47.8394 63.937 41.5424 56.2906 38.5779 53.4795Z" fill="#EF9E02" fill-opacity="0.83"/>
<path d="M26.895 55.1808C26.0104 57.3922 21.7722 55.5159 21.21 54.7492C20.5966 55.0559 10.2103 53.0183 9.59692 45.9648C6.9621 46.9006 5.74302 34.1574 9.59714 35.539C7.422 20.9867 40.51 11.2811 45.1714 36.9191C47.4715 34.4657 49.4648 45.4753 45.1714 45.966C40.0798 46.5478 41.7509 36.0885 44.6854 36.7166C44.844 36.7505 45.0063 36.8168 45.1714 36.9191C40.51 11.2811 7.422 20.9867 9.59714 35.539C12.6353 36.6282 11.8968 46.8849 9.59692 45.9648C10.2103 53.0183 20.5966 55.0559 21.21 54.7492C21.8233 54.4426 27.2016 54.414 26.895 55.1808Z" fill="#EF9E02" fill-opacity="0.83"/>
<path d="M21.21 54.7492C21.7722 55.5159 26.0104 57.3922 26.895 55.1808C27.2016 54.414 21.8233 54.4426 21.21 54.7492ZM21.21 54.7492C20.5966 55.0559 10.2103 53.0183 9.59692 45.9648M9.59692 45.9648C6.9621 46.9006 5.74302 34.1574 9.59714 35.539M9.59692 45.9648C11.8968 46.8849 12.6353 36.6282 9.59714 35.539M9.59692 45.9648C9.14089 45.7823 9.76828 39.168 9.59714 35.539M9.59714 35.539C7.422 20.9867 40.51 11.2811 45.1714 36.9191M45.1714 36.9191C47.4715 34.4657 49.4648 45.4753 45.1714 45.966C39.8046 46.5793 41.9513 34.9257 45.1714 36.9191ZM45.1714 36.9191L43.3314 36.1524M16.0374 56.2395C20.7908 57.9773 31.9537 59.8583 38.5779 53.4795C41.5424 56.2906 47.8394 63.937 49.3115 72.0332H8.37053C10.3128 66.5746 14.5653 55.7738 16.0374 56.2395Z" stroke="#EF9E02" stroke-opacity="0.83" stroke-width="0.306674"/>
<path d="M49.3119 73.3186H7.11009C6.20979 72.981 5.32824 74.7723 5 75.7101C5.89093 82.2279 7.78532 95.6012 8.23547 96.9517C8.68563 98.3021 10.1111 98.9211 10.7676 99.0618H45.9358C46.8361 98.7242 47.4363 97.8895 47.6239 97.5143C48.7492 90.762 51 76.948 51 75.7101C51 74.4722 49.8746 73.6 49.3119 73.3186Z" fill="#EF9E02" fill-opacity="0.83" stroke="#EF9E02" stroke-opacity="0.83" stroke-width="0.281346"/>
<path d="M10.1416 100.486H46.5639" stroke="#EF9E02" stroke-opacity="0.83" stroke-width="1.28549" stroke-linecap="round"/>
</g>
<defs>
<filter id="filter0_dd_845_303" x="0.855957" y="0.786621" width="176.285" height="119.697" filterUnits="userSpaceOnUse" color-interpolation-filters="sRGB">
<feFlood flood-opacity="0" result="BackgroundImageFix"/>
<feColorMatrix in="SourceAlpha" type="matrix" values="0 0 0 0 0 0 0 0 0 0 0 0 0 0 0 0 0 0 127 0" result="hardAlpha"/>
<feOffset dy="4"/>
<feGaussianBlur stdDeviation="2"/>
<feComposite in2="hardAlpha" operator="out"/>
<feColorMatrix type="matrix" values="0 0 0 0 0 0 0 0 0 0 0 0 0 0 0 0 0 0 0.25 0"/>
<feBlend mode="normal" in2="BackgroundImageFix" result="effect1_dropShadow_845_303"/>
<feColorMatrix in="SourceAlpha" type="matrix" values="0 0 0 0 0 0 0 0 0 0 0 0 0 0 0 0 0 0 127 0" result="hardAlpha"/>
<feOffset dy="4"/>
<feGaussianBlur stdDeviation="2"/>
<feComposite in2="hardAlpha" operator="out"/>
<feColorMatrix type="matrix" values="0 0 0 0 0 0 0 0 0 0 0 0 0 0 0 0 0 0 0.25 0"/>
<feBlend mode="normal" in2="effect1_dropShadow_845_303" result="effect2_dropShadow_845_303"/>
<feBlend mode="normal" in="SourceGraphic" in2="effect2_dropShadow_845_303" result="shape"/>
</filter>
</defs>
</svg>
